<svg xmlns="http://www.w3.org/2000/svg" width="150" height="150" viewBox="0 0 150 150">
  <metadata><?xpacket begin="﻿" id="W5M0MpCehiHzreSzNTczkc9d"?>
<x:xmpmeta xmlns:x="adobe:ns:meta/" x:xmptk="Adobe XMP Core 5.6-c138 79.159824, 2016/09/14-01:09:01        ">
   <rdf:RDF xmlns:rdf="http://www.w3.org/1999/02/22-rdf-syntax-ns#">
      <rdf:Description rdf:about=""/>
   </rdf:RDF>
</x:xmpmeta>
                                                                                                    
                                                                                                    
                                                                                                    
                                                                                                    
                                                                                                    
                                                                                                    
                                                                                                    
                                                                                                    
                                                                                                    
                                                                                                    
                                                                                                    
                                                                                                    
                                                                                                    
                                                                                                    
                                                                                                    
                                                                                                    
                                                                                                    
                                                                                                    
                                                                                                    
                                                                                                    
                           
<?xpacket end="w"?></metadata>
<defs>
    <style>
      .cls-1 {
        fill: #2e71f2;
        fill-rule: evenodd;
      }
    </style>
  </defs>
  <path id="Icon" class="cls-1" d="M466,0h0a75,75,0,0,0-75,75h0a75,75,0,0,0,75,75h0a75,75,0,0,0,75-75h0A75,75,0,0,0,466,0Zm0,146a71,71,0,1,1,71-71A71.08,71.08,0,0,1,466,146ZM485.361,38.1A27.709,27.709,0,0,0,466,46.178,27.709,27.709,0,0,0,446.639,38.1,25.369,25.369,0,0,0,421,63.742c0,17.362,14.907,31.85,37.695,52.011l6.026,5.013a2,2,0,0,0,2.559,0l6.07-5.052C496.092,95.592,511,81.1,511,63.742A25.369,25.369,0,0,0,485.361,38.1Zm-14.615,74.583L466,116.628l-4.7-3.91C440.046,93.912,425,79.39,425,63.742A21.411,21.411,0,0,1,446.639,42.1a23.982,23.982,0,0,1,17.834,8.323,2.066,2.066,0,0,0,3.054,0A23.982,23.982,0,0,1,485.361,42.1,21.411,21.411,0,0,1,507,63.742C507,79.39,491.955,93.912,470.746,112.679ZM446.779,47.334a16.45,16.45,0,0,0-16.625,16.629,2,2,0,0,0,4,0,12.492,12.492,0,0,1,12.625-12.629A2,2,0,0,0,446.779,47.334Z" transform="translate(-391)"/>
</svg>
