<svg xmlns="http://www.w3.org/2000/svg" width="22" height="15" viewBox="0 0 22 15">
  <metadata><?xpacket begin="﻿" id="W5M0MpCehiHzreSzNTczkc9d"?>
<x:xmpmeta xmlns:x="adobe:ns:meta/" x:xmptk="Adobe XMP Core 5.6-c138 79.159824, 2016/09/14-01:09:01        ">
   <rdf:RDF xmlns:rdf="http://www.w3.org/1999/02/22-rdf-syntax-ns#">
      <rdf:Description rdf:about=""/>
   </rdf:RDF>
</x:xmpmeta>
                                                                                                    
                                                                                                    
                                                                                                    
                                                                                                    
                                                                                                    
                                                                                                    
                                                                                                    
                                                                                                    
                                                                                                    
                                                                                                    
                                                                                                    
                                                                                                    
                                                                                                    
                                                                                                    
                                                                                                    
                                                                                                    
                                                                                                    
                                                                                                    
                                                                                                    
                                                                                                    
                           
<?xpacket end="w"?></metadata>
<defs>
    <style>
      .cls-1 {
        fill: #ccc;
        fill-rule: evenodd;
      }
    </style>
  </defs>
  <path id="news_icon" data-name="news icon" class="cls-1" d="M1044.69,54.816a0.924,0.924,0,0,1-.25-0.12,0.846,0.846,0,0,1-.35-0.686V53.943c0-.033.01-0.066,0.01-0.1a0.109,0.109,0,0,0,.01,0q0.03-.315.03-0.642a5.177,5.177,0,0,0-9.48-2.909h0a0.24,0.24,0,0,0-.04.06s-0.01,0-.01.007a0.832,0.832,0,0,1-1.09.223,0.493,0.493,0,0,1-.1-0.073,3.668,3.668,0,0,0-5.71,3.065,2.26,2.26,0,0,0,.02.369c0,0.035.01,0.072,0.01,0.109v0.043a0.836,0.836,0,0,1-.38.7,0.627,0.627,0,0,1-.13.068,4.349,4.349,0,0,0,2.11,8.141h13.33A4.349,4.349,0,0,0,1044.69,54.816Z" transform="translate(-1025 -48)"/>
</svg>
