<svg xmlns="http://www.w3.org/2000/svg" width="19" height="15" viewBox="0 0 19 15">
  <metadata><?xpacket begin="﻿" id="W5M0MpCehiHzreSzNTczkc9d"?>
<x:xmpmeta xmlns:x="adobe:ns:meta/" x:xmptk="Adobe XMP Core 5.6-c138 79.159824, 2016/09/14-01:09:01        ">
   <rdf:RDF xmlns:rdf="http://www.w3.org/1999/02/22-rdf-syntax-ns#">
      <rdf:Description rdf:about=""/>
   </rdf:RDF>
</x:xmpmeta>
                                                                                                    
                                                                                                    
                                                                                                    
                                                                                                    
                                                                                                    
                                                                                                    
                                                                                                    
                                                                                                    
                                                                                                    
                                                                                                    
                                                                                                    
                                                                                                    
                                                                                                    
                                                                                                    
                                                                                                    
                                                                                                    
                                                                                                    
                                                                                                    
                                                                                                    
                                                                                                    
                           
<?xpacket end="w"?></metadata>
<defs>
    <style>
      .cls-1 {
        fill: #ccc;
        fill-rule: evenodd;
      }
    </style>
  </defs>
  <path id="photos_icon" data-name="photos icon" class="cls-1" d="M1083.32,53.67a2.778,2.778,0,1,0,2.83,2.779A2.8,2.8,0,0,0,1083.32,53.67Zm6.57-4.057h-9.21a0.122,0.122,0,0,1-.03,0,0.055,0.055,0,0,1-.02,0,0.9,0.9,0,0,1-.83-0.58V49.027l-0.17-.432a0.931,0.931,0,0,0-.83-0.586h-1.29a0.942,0.942,0,0,0-.83.586l-0.16.416a0.1,0.1,0,0,1-.02.049V49.07a0.9,0.9,0,0,1-.81.542,0.122,0.122,0,0,1-.03,0,0.094,0.094,0,0,1-.02,0h-0.53a2.085,2.085,0,0,0-2.1,2.061v9.271a2.083,2.083,0,0,0,2.1,2.06h14.78a2.083,2.083,0,0,0,2.1-2.06V51.673A2.085,2.085,0,0,0,1089.89,49.612Zm-6.57,11.234a4.4,4.4,0,1,1,4.48-4.4A4.436,4.436,0,0,1,1083.32,60.846Zm6.1-7.771a0.989,0.989,0,1,1,1-.988A1,1,0,0,1,1089.42,53.075Z" transform="translate(-1073 -48)"/>
</svg>
