<svg xmlns="http://www.w3.org/2000/svg" width="25" height="23" viewBox="0 0 25 23">
  <defs>
    <style>
      .cls-1 {
        fill: #383a3e;
        fill-rule: evenodd;
      }
    </style>
  </defs>
  <path id="small-heart.svg" class="cls-1" d="M345.678,363a7.907,7.907,0,0,0-5.178,1.975A7.907,7.907,0,0,0,335.322,363,7.222,7.222,0,0,0,328,370.275c0,4.807,4.05,8.722,10.252,14.165l1.611,1.331a1,1,0,0,0,1.274,0l1.635-1.35C348.95,379,353,375.081,353,370.275A7.222,7.222,0,0,0,345.678,363Zm-4.2,19.9-0.975.8-0.951-.784C333.957,378.01,330,374.23,330,370.275A5.242,5.242,0,0,1,335.322,365a5.959,5.959,0,0,1,4.417,2.046,1.036,1.036,0,0,0,1.522,0A5.959,5.959,0,0,1,345.678,365,5.242,5.242,0,0,1,351,370.275C351,374.23,347.042,378.01,341.475,382.9ZM335.5,366.37a4.191,4.191,0,0,0-4.248,4.224,1,1,0,0,0,2,0,2.188,2.188,0,0,1,2.248-2.224A1,1,0,0,0,335.5,366.37Z" transform="translate(-328 -363)"/>
</svg>
