<svg xmlns="http://www.w3.org/2000/svg" width="19" height="13" viewBox="0 0 19 13">
  <metadata><?xpacket begin="﻿" id="W5M0MpCehiHzreSzNTczkc9d"?>
<x:xmpmeta xmlns:x="adobe:ns:meta/" x:xmptk="Adobe XMP Core 5.6-c138 79.159824, 2016/09/14-01:09:01        ">
   <rdf:RDF xmlns:rdf="http://www.w3.org/1999/02/22-rdf-syntax-ns#">
      <rdf:Description rdf:about=""/>
   </rdf:RDF>
</x:xmpmeta>
                                                                                                    
                                                                                                    
                                                                                                    
                                                                                                    
                                                                                                    
                                                                                                    
                                                                                                    
                                                                                                    
                                                                                                    
                                                                                                    
                                                                                                    
                                                                                                    
                                                                                                    
                                                                                                    
                                                                                                    
                                                                                                    
                                                                                                    
                                                                                                    
                                                                                                    
                                                                                                    
                           
<?xpacket end="w"?></metadata>
<defs>
    <style>
      .cls-1 {
        fill: #ccc;
        fill-rule: evenodd;
      }
    </style>
  </defs>
  <path id="social_icon" data-name="social icon" class="cls-1" d="M990.134,53.1a3.707,3.707,0,1,1-3.025-3.05A3.724,3.724,0,0,1,990.134,53.1Zm2.8,8.97-0.02-.07a10.362,10.362,0,0,0-2.576-4.49,0.379,0.379,0,0,0-.542.007,4.571,4.571,0,0,1-4.084,1.361,4.505,4.505,0,0,1-2.557-1.362,0.377,0.377,0,0,0-.539,0A10.358,10.358,0,0,0,980.045,62l-0.019.07a0.741,0.741,0,0,0,.728.929h11.455A0.742,0.742,0,0,0,992.937,62.071Zm6.037,0-0.02-.07a10.362,10.362,0,0,0-2.576-4.49,0.379,0.379,0,0,0-.542.007,4.548,4.548,0,0,1-2.876,1.4,12.881,12.881,0,0,1,1.583,3.551l0.025,0.088a0.91,0.91,0,0,1,.009.442h3.669A0.741,0.741,0,0,0,998.974,62.071Zm-2.757-8.97a3.687,3.687,0,0,0-4.842-2.9,0.567,0.567,0,0,0-.294.838,5.16,5.16,0,0,1,0,5.391,0.568,0.568,0,0,0,.3.839,3.448,3.448,0,0,0,.562.145A3.723,3.723,0,0,0,996.217,53.1Z" transform="translate(-980 -50)"/>
</svg>
