<svg xmlns="http://www.w3.org/2000/svg" width="22.781" height="25" viewBox="0 0 22.781 25">
  <metadata><?xpacket begin="﻿" id="W5M0MpCehiHzreSzNTczkc9d"?>
<x:xmpmeta xmlns:x="adobe:ns:meta/" x:xmptk="Adobe XMP Core 5.6-c138 79.159824, 2016/09/14-01:09:01        ">
   <rdf:RDF xmlns:rdf="http://www.w3.org/1999/02/22-rdf-syntax-ns#">
      <rdf:Description rdf:about=""/>
   </rdf:RDF>
</x:xmpmeta>
                                                                                                    
                                                                                                    
                                                                                                    
                                                                                                    
                                                                                                    
                                                                                                    
                                                                                                    
                                                                                                    
                                                                                                    
                                                                                                    
                                                                                                    
                                                                                                    
                                                                                                    
                                                                                                    
                                                                                                    
                                                                                                    
                                                                                                    
                                                                                                    
                                                                                                    
                                                                                                    
                           
<?xpacket end="w"?></metadata>
<defs>
    <style>
      .cls-1 {
        fill: #383a3e;
        fill-rule: evenodd;
      }
    </style>
  </defs>
  <path id="Icon" class="cls-1" d="M850.679,382.807l-0.593-2.793a7.861,7.861,0,0,0-4.784-5.742l-1.015-.4a8.743,8.743,0,0,0,1.152-4.4c0-6.506-3.739-7.478-5.967-7.478s-5.966.972-5.966,7.478a8.754,8.754,0,0,0,1.12,4.344l-1.151.45a7.862,7.862,0,0,0-4.783,5.742l-0.593,2.793a3.525,3.525,0,0,0,.687,2.941A3.286,3.286,0,0,0,831.359,387h16.06a3.284,3.284,0,0,0,2.573-1.253A3.517,3.517,0,0,0,850.679,382.807ZM839.472,364c1.713,0,3.989.568,3.989,5.478,0,3.021-1.79,5.477-3.989,5.477s-3.989-2.456-3.989-5.477C835.483,364.568,837.76,364,839.472,364Zm8.982,20.49a1.306,1.306,0,0,1-1.035.51h-16.06a1.308,1.308,0,0,1-1.035-.51,1.511,1.511,0,0,1-.292-1.263l0.592-2.793a5.872,5.872,0,0,1,3.565-4.3l1.723-.673a4.993,4.993,0,0,0,7.072.044l1.6,0.629a5.87,5.87,0,0,1,3.565,4.3l0.593,2.793A1.514,1.514,0,0,1,848.454,384.49Z" transform="translate(-828 -362)"/>
</svg>
