<svg xmlns="http://www.w3.org/2000/svg" width="16" height="25" viewBox="0 0 16 25">
  <metadata><?xpacket begin="﻿" id="W5M0MpCehiHzreSzNTczkc9d"?>
<x:xmpmeta xmlns:x="adobe:ns:meta/" x:xmptk="Adobe XMP Core 5.6-c138 79.159824, 2016/09/14-01:09:01        ">
   <rdf:RDF xmlns:rdf="http://www.w3.org/1999/02/22-rdf-syntax-ns#">
      <rdf:Description rdf:about=""/>
   </rdf:RDF>
</x:xmpmeta>
                                                                                                    
                                                                                                    
                                                                                                    
                                                                                                    
                                                                                                    
                                                                                                    
                                                                                                    
                                                                                                    
                                                                                                    
                                                                                                    
                                                                                                    
                                                                                                    
                                                                                                    
                                                                                                    
                                                                                                    
                                                                                                    
                                                                                                    
                                                                                                    
                                                                                                    
                                                                                                    
                           
<?xpacket end="w"?></metadata>
<defs>
    <style>
      .cls-1 {
        fill: #383a3e;
        fill-rule: evenodd;
      }
    </style>
  </defs>
  <path id="Icon" class="cls-1" d="M594.267,374.608v-6.733H597a1,1,0,0,0,0-2h-2.733V364a1,1,0,0,0-2,0v1.875h-4.534V364a1,1,0,0,0-2,0v2.022A5.249,5.249,0,0,0,582,371.248a5.176,5.176,0,0,0,3.733,5.106v6.771H583a1,1,0,1,0,0,2h2.733V387a1,1,0,0,0,2,0v-1.875h4.534V387a1,1,0,0,0,2,0v-2c2.27-.589,3.733-3.112,3.733-5.516A4.8,4.8,0,0,0,594.267,374.608Zm-2-6.733V374.5h-4.534v-6.624h4.534ZM584,371.163a3.382,3.382,0,0,1,1.733-3.024v6.108A3.364,3.364,0,0,1,584,371.163Zm3.733,11.962V376.5h4.534v6.625h-4.534Zm6.534-.289V376.7a2.892,2.892,0,0,1,1.733,2.82A3.968,3.968,0,0,1,594.267,382.836Z" transform="translate(-582 -363)"/>
</svg>
